<?xml version="1.0" encoding="UTF-8" standalone="no"?>
<!-- Created with Inkscape (http://www.inkscape.org/) -->

<svg
   xmlns:dc="http://purl.org/dc/elements/1.1/"
   xmlns:cc="http://creativecommons.org/ns#"
   xmlns:rdf="http://www.w3.org/1999/02/22-rdf-syntax-ns#"
   xmlns:svg="http://www.w3.org/2000/svg"
   xmlns="http://www.w3.org/2000/svg"
   xmlns:sodipodi="http://sodipodi.sourceforge.net/DTD/sodipodi-0.dtd"
   xmlns:inkscape="http://www.inkscape.org/namespaces/inkscape"
   width="47.75"
   height="47.4375"
   id="svg2"
   version="1.1"
   inkscape:version="0.48.4 r9939"
   sodipodi:docname="icon.svg">
  <defs
     id="defs4" />
  <sodipodi:namedview
     id="base"
     pagecolor="#ffffff"
     bordercolor="#666666"
     borderopacity="1.0"
     inkscape:pageopacity="0.0"
     inkscape:pageshadow="2"
     inkscape:zoom="7"
     inkscape:cx="23.624063"
     inkscape:cy="14.871432"
     inkscape:document-units="px"
     inkscape:current-layer="layer1"
     showgrid="false"
     inkscape:window-width="1366"
     inkscape:window-height="738"
     inkscape:window-x="0"
     inkscape:window-y="0"
     inkscape:window-maximized="0"
     fit-margin-top="0"
     fit-margin-left="0"
     fit-margin-right="0"
     fit-margin-bottom="0" />
  <metadata
     id="metadata7">
    <rdf:RDF>
      <cc:Work
         rdf:about="">
        <dc:format>image/svg+xml</dc:format>
        <dc:type
           rdf:resource="http://purl.org/dc/dcmitype/StillImage" />
        <dc:title></dc:title>
      </cc:Work>
    </rdf:RDF>
  </metadata>
  <g
     inkscape:label="Layer 1"
     inkscape:groupmode="layer"
     id="layer1"
     transform="translate(-187.90625,-210.4375)">
    <path
       style="fill:#ffffff;fill-opacity:1;stroke:#000000;stroke-width:1px;stroke-linecap:butt;stroke-linejoin:miter;stroke-opacity:1"
       d="m 188.42857,257.36218 1.42857,-45.42857 45.28572,-1 L 234,256.6479 z"
       id="path3815"
       inkscape:connector-curvature="0" />
    <path
       id="path3791"
       style="fill:#ffee00;fill-opacity:1;stroke:#000000;stroke-width:1px;stroke-linecap:butt;stroke-linejoin:miter;stroke-opacity:1"
       d="m 215.00001,217.36217 4.14285,-1.14285 -4,-3.42857 z m -5.42858,3.85715 2.85715,-2.42857 -4.57143,-1.85715 z m -0.85714,8.57143 -0.42857,-6 -6,3.14285 z m -0.14286,3.42857 2.57143,4.14285 -5,0.85715 z m 5.42858,5.57143 6.14285,1.28571 -4.14285,4.28571 z m 9,0.85714 3.42857,-2.14286 0.42857,5 z m 6.71428,-8.57143 -2,4.85714 4.85714,-0.71428 z m 0.57143,-5.85714 0.28571,4.14285 2.85715,-2.42857 z m -3.28571,-6.14286 2.57142,4.28571 1.57143,-4.14285 z m -5.85715,-2.42857 4.14286,1.14286 -1.14286,-4.85715 z m -1.28571,1.57143 5.71429,1.57143 3.14286,4.85714 0.42857,4.85715 -2.57143,5.85714 -5.28572,3.42857 -8.14285,-1.57143 -3.42857,-5.14286 0.14285,-8.85714 4.28572,-3.57143 z"
       inkscape:connector-curvature="0" />
    <path
       style="fill:#1800ff;fill-opacity:1;stroke:#000000;stroke-width:1px;stroke-linecap:butt;stroke-linejoin:miter;stroke-opacity:1"
       d="m 210.57589,219.78125 -8.40625,1.4375 -9.15625,9.40625 -2.28125,21.15625 1.28125,3.4375 6.15625,0.6875 5.5625,-3.125 1.28125,-6.4375 -1.84375,-10.125 -1.875,-12.15625 5.5625,-2 5,1.28125 2.71875,3.28125 -0.5625,5.71875 -4,3.5625 -5.15625,-0.40625 -0.125,3 1.71875,0 5.71875,1.5625 4.28125,3.4375 2.5625,4.5625 -5.28125,-2.4375 -5.5625,1.71875 -0.15625,6.4375 4.71875,2.4375 6.28125,-1.3125 1.71875,-3.28125 4.71875,1.15625 0,-3.71875 -4,0.4375 0.125,-4.59375 -3.40625,-5.40625 -6.71875,-2 3.125,-2.15625 3.28125,-4.4375 -1,-7.6875 -6.28125,-3.4375 z m -12.5625,7.84375 1.71875,8.875 2,10.40625 -0.4375,4.4375 -1.5625,2.15625 -4.4375,-0.875 -1.5625,-2.40625 2,-19.875 2.28125,-2.71875 z m 14.5625,21.03125 5.4375,2.40625 -0.15625,1.875 -4,0.71875 -2.84375,-2 -0.59375,-0.875 0,-2 2.15625,-0.125 z"
       id="path2991"
       inkscape:connector-curvature="0" />
  </g>
</svg>
